<?xml version="1.0" encoding="UTF-8"?>
<svg xmlns="http://www.w3.org/2000/svg" xmlns:xlink="http://www.w3.org/1999/xlink" width="1800pt" height="1799.999925pt" viewBox="0 0 1800 1799.999925" version="1.2">
<defs>
<clipPath id="clip1">
  <path d="M 298 180 L 1539.308594 180 L 1539.308594 1620 L 298 1620 Z M 298 180 "/>
</clipPath>
</defs>
<g id="surface1">
<g clip-path="url(#clip1)" clip-rule="nonzero">
<path style=" stroke:none;fill-rule:nonzero;fill:rgb(0%,0%,0%);fill-opacity:1;" d="M 1539.308594 1235.945312 C 1507.328125 1307.933594 1491.335938 1347.925781 1443.367188 1411.917969 C 1379.40625 1507.902344 1299.457031 1619.882812 1187.523438 1619.882812 C 1091.585938 1619.882812 1067.597656 1555.894531 939.679688 1555.894531 C 811.757812 1555.894531 787.773438 1619.882812 691.832031 1619.882812 C 587.898438 1619.882812 507.945312 1515.898438 443.984375 1419.914062 C 276.089844 1163.957031 260.101562 860.007812 364.035156 700.03125 C 435.992188 588.050781 555.917969 516.0625 667.847656 516.0625 C 779.777344 516.0625 851.734375 580.050781 939.679688 580.050781 C 1027.625 580.050781 1083.589844 516.0625 1211.511719 516.0625 C 1307.449219 516.0625 1411.386719 572.054688 1491.335938 660.039062 C 1251.484375 796.015625 1291.460938 1139.960938 1539.308594 1235.945312 Z M 1123.566406 412.078125 C 1171.535156 348.089844 1203.515625 268.101562 1195.519531 180.117188 C 1115.570312 188.113281 1027.625 236.105469 971.660156 300.097656 C 923.6875 356.089844 883.714844 444.074219 899.703125 532.058594 C 979.652344 532.058594 1067.597656 476.070312 1123.566406 412.078125 Z M 1123.566406 412.078125 "/>
</g>
</g>
</svg>
