<?xml version="1.0" encoding="UTF-8"?>
<svg xmlns="http://www.w3.org/2000/svg" xmlns:xlink="http://www.w3.org/1999/xlink" width="1800pt" height="1799.999925pt" viewBox="0 0 1800 1799.999925" version="1.2">
<g id="surface1">
<path style=" stroke:none;fill-rule:nonzero;fill:rgb(40.388489%,22.749329%,71.759033%);fill-opacity:1;" d="M 1620 1420 C 1620 1530.480469 1530.480469 1620 1420 1620 L 380 1620 C 269.558594 1620 180 1530.480469 180 1420 L 180 380 C 180 269.519531 269.558594 180 380 180 L 1420 180 C 1530.480469 180 1620 269.519531 1620 380 Z M 1620 1420 "/>
<path style=" stroke:none;fill-rule:nonzero;fill:rgb(100%,100%,100%);fill-opacity:1;" d="M 1261.199219 964 C 1235.199219 928 1197.601562 903.199219 1149.199219 890 C 1149.199219 890 1190 875.199219 1226.800781 820 C 1248.800781 784.800781 1260 742.398438 1260 692.800781 C 1260 606.800781 1228.800781 540.800781 1166.398438 495.601562 C 1104 450.398438 1033.601562 420 914 420 L 540 420 L 540 1380 L 957.199219 1380 C 1070.398438 1379.199219 1155.601562 1354.800781 1213.601562 1308 C 1271.199219 1260.398438 1300 1190 1300 1096 C 1300 1044 1287.199219 1000 1261.199219 964 Z M 780 580 C 780 580 946.800781 580 950 580 C 1010.800781 580 1060 629.199219 1060 690 C 1060 750.800781 1010.800781 800 950 800 C 946.800781 800 780 800 780 800 Z M 980 1220 L 780 1220 L 780 980 L 980 980 C 1046.398438 980 1100 1033.601562 1100 1100 C 1100 1166.398438 1046.398438 1220 980 1220 Z M 980 1220 "/>
</g>
</svg>
