<?xml version="1.0" encoding="UTF-8"?>
<svg xmlns="http://www.w3.org/2000/svg" xmlns:xlink="http://www.w3.org/1999/xlink" width="1800pt" height="1799.999925pt" viewBox="0 0 1800 1799.999925" version="1.2">
<defs>
<clipPath id="clip1">
  <path d="M 227 243 L 1574 243 L 1574 1554 L 227 1554 Z M 227 243 "/>
</clipPath>
</defs>
<g id="surface1">
<g clip-path="url(#clip1)" clip-rule="nonzero">
<path style=" stroke:none;fill-rule:nonzero;fill:rgb(0%,0%,0%);fill-opacity:1;" d="M 1117.179688 1551.84375 C 1114.941406 1552.410156 1112.671875 1552.695312 1110.363281 1552.703125 L 1105.328125 1548.097656 L 1105.328125 1508.921875 C 1105.328125 1472.449219 1105.941406 1417.25 1105.941406 1354.066406 C 1106.121094 1344.773438 1105.765625 1335.503906 1104.875 1326.253906 C 1103.980469 1317 1102.558594 1307.832031 1100.605469 1298.746094 C 1098.652344 1289.660156 1096.179688 1280.71875 1093.191406 1271.917969 C 1090.203125 1263.117188 1086.714844 1254.519531 1082.730469 1246.121094 C 1222.789062 1220.824219 1379.734375 1145.179688 1379.734375 874.273438 C 1379.875 865.417969 1379.625 856.574219 1378.992188 847.742188 C 1378.355469 838.910156 1377.335938 830.125 1375.929688 821.382812 C 1374.523438 812.640625 1372.734375 803.972656 1370.566406 795.390625 C 1368.402344 786.804688 1365.863281 778.328125 1362.949219 769.964844 C 1360.039062 761.601562 1356.765625 753.382812 1353.132812 745.308594 C 1349.5 737.234375 1345.519531 729.332031 1341.195312 721.605469 C 1336.867188 713.878906 1332.210938 706.359375 1327.222656 699.042969 C 1322.238281 691.722656 1316.941406 684.640625 1311.332031 677.785156 C 1313.4375 669.910156 1315.21875 661.957031 1316.671875 653.933594 C 1318.125 645.90625 1319.242188 637.835938 1320.027344 629.71875 C 1320.8125 621.601562 1321.261719 613.464844 1321.378906 605.3125 C 1321.492188 597.15625 1321.269531 589.011719 1320.710938 580.875 C 1320.15625 572.738281 1319.261719 564.640625 1318.035156 556.578125 C 1316.808594 548.515625 1315.253906 540.515625 1313.367188 532.582031 C 1311.480469 524.648438 1309.269531 516.804688 1306.738281 509.054688 C 1304.203125 501.300781 1301.355469 493.667969 1298.191406 486.152344 C 1297.359375 484.046875 1296.308594 482.054688 1295.035156 480.183594 C 1293.761719 478.308594 1292.300781 476.597656 1290.652344 475.046875 C 1289 473.5 1287.199219 472.148438 1285.25 470.996094 C 1283.300781 469.84375 1281.25 468.917969 1279.09375 468.222656 C 1270.859375 465.910156 1262.46875 464.867188 1253.921875 465.089844 C 1245.640625 465.824219 1237.394531 466.851562 1229.1875 468.171875 C 1220.980469 469.492188 1212.828125 471.105469 1204.734375 473.003906 C 1196.640625 474.902344 1188.625 477.085938 1180.6875 479.554688 C 1172.746094 482.019531 1164.90625 484.769531 1157.164062 487.792969 C 1149.417969 490.816406 1141.792969 494.113281 1134.28125 497.679688 C 1126.773438 501.246094 1119.398438 505.074219 1112.160156 509.164062 C 1104.921875 513.253906 1097.839844 517.59375 1090.910156 522.1875 C 1083.980469 526.78125 1077.222656 531.613281 1070.636719 536.683594 C 1042.722656 529.742188 1014.496094 524.484375 985.953125 520.910156 C 957.414062 517.335938 928.761719 515.472656 900 515.316406 C 871.222656 515.375 842.558594 517.179688 814.003906 520.734375 C 785.449219 524.289062 757.214844 529.5625 729.300781 536.5625 C 722.707031 531.484375 715.9375 526.648438 709 522.054688 C 702.058594 517.457031 694.964844 513.113281 687.71875 509.023438 C 680.46875 504.929688 673.085938 501.101562 665.566406 497.535156 C 658.046875 493.964844 650.410156 490.671875 642.65625 487.644531 C 634.902344 484.621094 627.050781 481.875 619.101562 479.40625 C 611.152344 476.941406 603.125 474.757812 595.019531 472.863281 C 586.917969 470.964844 578.753906 469.359375 570.535156 468.039062 C 562.316406 466.722656 554.0625 465.699219 545.773438 464.96875 C 537.222656 464.75 528.832031 465.792969 520.597656 468.097656 C 518.441406 468.800781 516.386719 469.730469 514.433594 470.886719 C 512.484375 472.042969 510.683594 473.398438 509.03125 474.953125 C 507.378906 476.507812 505.917969 478.226562 504.648438 480.105469 C 503.378906 481.984375 502.328125 483.980469 501.5 486.089844 C 498.339844 493.609375 495.496094 501.242188 492.96875 508.996094 C 490.441406 516.75 488.234375 524.59375 486.355469 532.53125 C 484.476562 540.46875 482.929688 548.464844 481.710938 556.53125 C 480.492188 564.59375 479.609375 572.695312 479.0625 580.832031 C 478.515625 588.96875 478.304688 597.113281 478.429688 605.269531 C 478.558594 613.421875 479.019531 621.558594 479.820312 629.675781 C 480.621094 637.789062 481.753906 645.859375 483.21875 653.882812 C 484.6875 661.902344 486.484375 669.851562 488.605469 677.726562 C 482.996094 684.578125 477.695312 691.660156 472.707031 698.976562 C 467.714844 706.292969 463.054688 713.816406 458.726562 721.539062 C 454.398438 729.265625 450.414062 737.167969 446.78125 745.242188 C 443.144531 753.316406 439.871094 761.535156 436.957031 769.898438 C 434.042969 778.261719 431.5 786.734375 429.332031 795.320312 C 427.160156 803.90625 425.371094 812.574219 423.960938 821.316406 C 422.550781 830.058594 421.53125 838.847656 420.890625 847.679688 C 420.253906 856.511719 420.003906 865.355469 420.144531 874.210938 C 420.144531 1144.992188 576.964844 1221.007812 716.714844 1246.550781 C 708.976562 1262.214844 703.285156 1278.585938 699.644531 1295.671875 C 691.269531 1298.734375 682.695312 1301.066406 673.925781 1302.675781 C 665.152344 1304.28125 656.308594 1305.140625 647.394531 1305.253906 C 641.238281 1305.386719 635.125 1304.964844 629.046875 1303.984375 C 622.972656 1303 617.035156 1301.476562 611.238281 1299.410156 C 605.441406 1297.34375 599.878906 1294.769531 594.550781 1291.683594 C 589.226562 1288.601562 584.222656 1285.058594 579.542969 1281.058594 C 577.710938 1278.632812 575.519531 1276.585938 572.972656 1274.921875 C 568.769531 1270.296875 564.820312 1265.46875 561.121094 1260.429688 L 559.894531 1258.957031 C 559.570312 1258.375 559.199219 1257.820312 558.789062 1257.296875 L 553.632812 1250.667969 C 551.960938 1248.707031 550.40625 1246.660156 548.964844 1244.527344 C 547.222656 1241.496094 545.394531 1238.519531 543.480469 1235.59375 C 541.566406 1232.667969 539.566406 1229.804688 537.484375 1226.996094 C 535.402344 1224.191406 533.238281 1221.445312 530.996094 1218.765625 C 528.753906 1216.085938 526.433594 1213.472656 524.039062 1210.925781 C 521.640625 1208.382812 519.171875 1205.910156 516.632812 1203.507812 C 514.09375 1201.105469 511.484375 1198.78125 508.808594 1196.535156 C 506.132812 1194.285156 503.390625 1192.117188 500.589844 1190.03125 C 497.785156 1187.941406 494.921875 1185.9375 492.003906 1184.015625 C 489.082031 1182.097656 486.109375 1180.261719 483.082031 1178.515625 C 480.054688 1176.769531 476.976562 1175.109375 473.851562 1173.542969 C 470.730469 1171.976562 467.5625 1170.503906 464.351562 1169.121094 C 461.140625 1167.738281 457.890625 1166.453125 454.605469 1165.261719 C 451.320312 1164.066406 448.003906 1162.972656 444.652344 1161.976562 C 441.300781 1160.976562 437.925781 1160.078125 434.523438 1159.277344 C 431.121094 1158.476562 427.699219 1157.777344 424.253906 1157.175781 C 420.8125 1156.574219 417.355469 1156.074219 413.882812 1155.675781 C 381.277344 1155.675781 359.664062 1167.160156 353.15625 1188.160156 C 342.960938 1221.007812 378.574219 1245.507812 395.769531 1256.867188 C 399.460938 1259.40625 403.039062 1262.097656 406.507812 1264.941406 C 409.972656 1267.785156 413.3125 1270.769531 416.523438 1273.894531 C 419.738281 1277.019531 422.8125 1280.273438 425.75 1283.660156 C 428.6875 1287.046875 431.476562 1290.550781 434.117188 1294.171875 C 436.757812 1297.792969 439.242188 1301.523438 441.566406 1305.355469 C 443.890625 1309.1875 446.050781 1313.109375 448.042969 1317.125 C 450.035156 1321.140625 451.855469 1325.230469 453.503906 1329.398438 C 455.148438 1333.570312 456.617188 1337.800781 457.90625 1342.09375 C 458.839844 1344.507812 459.816406 1346.902344 460.84375 1349.28125 C 461.871094 1351.65625 462.945312 1354.011719 464.066406 1356.34375 C 465.1875 1358.675781 466.351562 1360.988281 467.566406 1363.273438 C 468.777344 1365.5625 470.035156 1367.824219 471.335938 1370.0625 C 472.636719 1372.296875 473.984375 1374.507812 475.371094 1376.691406 C 476.761719 1378.875 478.195312 1381.03125 479.667969 1383.160156 C 481.144531 1385.285156 482.660156 1387.382812 484.21875 1389.449219 C 485.777344 1391.515625 487.375 1393.550781 489.015625 1395.554688 C 490.652344 1397.558594 492.332031 1399.527344 494.050781 1401.464844 C 495.765625 1403.402344 497.519531 1405.304688 499.3125 1407.171875 C 501.105469 1409.039062 502.933594 1410.871094 504.800781 1412.664062 C 506.664062 1414.460938 508.566406 1416.21875 510.5 1417.9375 C 512.4375 1419.65625 514.402344 1421.335938 516.40625 1422.976562 C 518.40625 1424.617188 520.441406 1426.21875 522.503906 1427.78125 C 524.570312 1429.339844 526.664062 1430.859375 528.789062 1432.335938 C 530.917969 1433.816406 533.070312 1435.25 535.253906 1436.640625 C 537.433594 1438.035156 539.644531 1439.382812 541.878906 1440.6875 C 544.113281 1441.992188 546.375 1443.25 548.660156 1444.464844 C 550.945312 1445.679688 553.257812 1446.847656 555.589844 1447.972656 C 557.921875 1449.09375 560.273438 1450.171875 562.648438 1451.203125 C 565.023438 1452.230469 567.417969 1453.214844 569.832031 1454.148438 C 572.246094 1455.082031 574.675781 1455.96875 577.125 1456.808594 C 579.574219 1457.648438 582.039062 1458.4375 584.519531 1459.175781 C 587 1459.917969 589.492188 1460.609375 592 1461.25 C 594.507812 1461.890625 597.027344 1462.484375 599.558594 1463.023438 C 602.089844 1463.566406 604.628906 1464.058594 607.179688 1464.5 C 609.730469 1464.941406 612.289062 1465.332031 614.855469 1465.667969 C 617.421875 1466.007812 619.996094 1466.296875 622.570312 1466.535156 C 625.148438 1466.773438 627.730469 1466.957031 630.316406 1467.09375 C 632.902344 1467.230469 635.488281 1467.3125 638.074219 1467.34375 C 640.664062 1467.378906 643.25 1467.359375 645.839844 1467.289062 C 648.425781 1467.21875 651.011719 1467.097656 653.59375 1466.921875 C 667.160156 1466.902344 680.667969 1466.019531 694.121094 1464.285156 L 694.855469 1548.34375 L 689.390625 1552.761719 C 687.488281 1552.761719 685.214844 1552.761719 687.179688 1553.253906 C 674.6875 1549.082031 662.324219 1544.550781 650.097656 1539.652344 C 637.871094 1534.757812 625.796875 1529.507812 613.875 1523.902344 C 601.957031 1518.296875 590.210938 1512.34375 578.640625 1506.050781 C 567.070312 1499.757812 555.695312 1493.128906 544.511719 1486.164062 C 533.332031 1479.203125 522.363281 1471.917969 511.609375 1464.3125 C 500.855469 1456.707031 490.332031 1448.792969 480.042969 1440.566406 C 469.753906 1432.34375 459.714844 1423.824219 449.925781 1415.011719 C 440.136719 1406.199219 430.613281 1397.105469 421.359375 1387.734375 C 412.105469 1378.363281 403.132812 1368.726562 394.441406 1358.828125 C 385.75 1348.929688 377.359375 1338.785156 369.265625 1328.394531 C 361.167969 1318.003906 353.386719 1307.382812 345.914062 1296.535156 C 338.445312 1285.6875 331.296875 1274.628906 324.476562 1263.359375 C 317.652344 1252.09375 311.167969 1240.636719 305.019531 1228.988281 C 298.867188 1217.339844 293.066406 1205.519531 287.609375 1193.53125 C 282.152344 1181.542969 277.054688 1169.402344 272.3125 1157.117188 C 267.566406 1144.828125 263.1875 1132.410156 259.175781 1119.867188 C 255.160156 1107.320312 251.515625 1094.667969 248.246094 1081.910156 C 244.972656 1069.148438 242.078125 1056.304688 239.558594 1043.375 C 237.042969 1030.449219 234.90625 1017.457031 233.152344 1004.402344 C 231.394531 991.347656 230.023438 978.253906 229.039062 965.117188 C 228.050781 951.980469 227.449219 938.828125 227.234375 925.660156 C 227.019531 912.488281 227.191406 899.324219 227.75 886.164062 C 228.308594 873.003906 229.253906 859.871094 230.582031 846.765625 C 231.910156 833.660156 233.621094 820.609375 235.71875 807.601562 C 237.8125 794.597656 240.285156 781.667969 243.140625 768.808594 C 245.996094 755.949219 249.222656 743.183594 252.828125 730.515625 C 256.429688 717.847656 260.402344 705.292969 264.742188 692.855469 C 269.082031 680.421875 273.785156 668.121094 278.847656 655.960938 C 283.910156 643.800781 289.324219 631.800781 295.089844 619.957031 C 300.855469 608.113281 306.964844 596.453125 313.417969 584.96875 C 319.867188 573.484375 326.652344 562.199219 333.765625 551.113281 C 340.878906 540.027344 348.3125 529.160156 356.0625 518.511719 C 363.8125 507.859375 371.871094 497.449219 380.234375 487.269531 C 388.597656 477.09375 397.25 467.171875 406.195312 457.503906 C 415.140625 447.835938 424.363281 438.4375 433.859375 429.308594 C 443.355469 420.179688 453.113281 411.339844 463.128906 402.785156 C 473.144531 394.230469 483.402344 385.976562 493.902344 378.023438 C 504.402344 370.070312 515.125 362.433594 526.074219 355.109375 C 537.023438 347.789062 548.179688 340.792969 559.539062 334.125 C 570.898438 327.453125 582.441406 321.125 594.171875 315.132812 C 605.902344 309.144531 617.800781 303.503906 629.863281 298.210938 C 641.921875 292.917969 654.128906 287.984375 666.480469 283.40625 C 678.832031 278.832031 691.308594 274.621094 703.90625 270.777344 C 716.503906 266.933594 729.207031 263.464844 742.007812 260.363281 C 754.8125 257.265625 767.691406 254.546875 780.65625 252.203125 C 793.617188 249.863281 806.636719 247.902344 819.714844 246.324219 C 832.792969 244.746094 845.902344 243.554688 859.050781 242.746094 C 872.199219 241.9375 885.355469 241.515625 898.527344 241.480469 C 911.699219 241.445312 924.863281 241.792969 938.011719 242.53125 C 951.164062 243.269531 964.285156 244.390625 977.367188 245.898438 C 990.453125 247.402344 1003.484375 249.292969 1016.457031 251.5625 C 1029.433594 253.835938 1042.332031 256.484375 1055.148438 259.515625 C 1067.96875 262.542969 1080.6875 265.945312 1093.308594 269.722656 C 1105.925781 273.496094 1118.425781 277.636719 1130.800781 282.148438 C 1143.175781 286.65625 1155.410156 291.523438 1167.5 296.75 C 1179.589844 301.976562 1191.515625 307.554688 1203.28125 313.480469 C 1215.042969 319.410156 1226.621094 325.675781 1238.019531 332.28125 C 1249.414062 338.886719 1260.605469 345.824219 1271.59375 353.085938 C 1282.582031 360.351562 1293.347656 367.929688 1303.890625 375.824219 C 1314.433594 383.722656 1324.738281 391.917969 1334.796875 400.417969 C 1344.859375 408.917969 1354.664062 417.707031 1364.210938 426.785156 C 1373.757812 435.859375 1383.03125 445.207031 1392.027344 454.828125 C 1401.023438 464.445312 1409.730469 474.324219 1418.148438 484.453125 C 1426.566406 494.585938 1434.683594 504.953125 1442.492188 515.5625 C 1450.300781 526.167969 1457.792969 536.996094 1464.964844 548.042969 C 1472.140625 559.089844 1478.984375 570.339844 1485.496094 581.785156 C 1492.007812 593.234375 1498.183594 604.867188 1504.011719 616.675781 C 1509.84375 628.488281 1515.324219 640.460938 1520.449219 652.59375 C 1525.578125 664.726562 1530.347656 676.996094 1534.753906 689.410156 C 1539.164062 701.824219 1543.203125 714.355469 1546.875 727.003906 C 1550.546875 739.652344 1553.84375 752.398438 1556.769531 765.242188 C 1559.691406 778.085938 1562.238281 791.003906 1564.402344 803.996094 C 1566.570312 816.988281 1568.351562 830.035156 1569.753906 843.132812 C 1571.152344 856.230469 1572.167969 869.355469 1572.796875 882.511719 C 1573.425781 895.671875 1573.667969 908.835938 1573.527344 922.003906 C 1573.382812 935.175781 1572.855469 948.332031 1571.9375 961.472656 C 1571.023438 974.613281 1569.722656 987.714844 1568.039062 1000.777344 C 1566.355469 1013.84375 1564.289062 1026.84375 1561.839844 1039.789062 C 1559.394531 1052.730469 1556.566406 1065.589844 1553.363281 1078.367188 C 1550.164062 1091.144531 1546.589844 1103.816406 1542.640625 1116.382812 C 1538.695312 1128.949219 1534.382812 1141.390625 1529.707031 1153.703125 C 1525.03125 1166.015625 1519.996094 1178.183594 1514.605469 1190.203125 C 1509.214844 1202.21875 1503.476562 1214.070312 1497.390625 1225.75 C 1491.304688 1237.433594 1484.882812 1248.925781 1478.121094 1260.230469 C 1471.359375 1271.535156 1464.273438 1282.632812 1456.859375 1293.519531 C 1449.449219 1304.410156 1441.722656 1315.070312 1433.6875 1325.503906 C 1425.648438 1335.941406 1417.308594 1346.128906 1408.675781 1356.074219 C 1400.039062 1366.023438 1391.117188 1375.707031 1381.914062 1385.128906 C 1372.707031 1394.550781 1363.234375 1403.695312 1353.496094 1412.558594 C 1343.753906 1421.425781 1333.761719 1430 1323.515625 1438.277344 C 1313.269531 1446.558594 1302.792969 1454.53125 1292.082031 1462.195312 C 1281.367188 1469.859375 1270.441406 1477.203125 1259.296875 1484.226562 C 1248.152344 1491.25 1236.8125 1497.9375 1225.277344 1504.296875 C 1213.742188 1510.652344 1202.027344 1516.667969 1190.136719 1522.335938 C 1178.25 1528.007812 1166.203125 1533.324219 1154.003906 1538.285156 C 1141.800781 1543.25 1129.464844 1547.847656 1116.992188 1552.085938 Z M 1117.179688 1551.84375 "/>
</g>
</g>
</svg>
