<?xml version="1.0" encoding="UTF-8"?>
<svg xmlns="http://www.w3.org/2000/svg" xmlns:xlink="http://www.w3.org/1999/xlink" width="1800pt" height="1799.999925pt" viewBox="0 0 1800 1799.999925" version="1.2">
<defs>
<clipPath id="clip1">
  <path d="M 689 180 L 1021 180 L 1021 894 L 689 894 Z M 689 180 "/>
</clipPath>
</defs>
<g id="surface1">
<g clip-path="url(#clip1)" clip-rule="nonzero">
<path style=" stroke:none;fill-rule:nonzero;fill:rgb(95.689392%,26.269531%,21.179199%);fill-opacity:1;" d="M 887.765625 893.105469 C 853.730469 838.203125 829.039062 792.683594 794.835938 706.964844 C 736.996094 562.179688 1146.613281 431.351562 980.53125 179.964844 C 1052.523438 353.621094 722.125 460.972656 691.433594 605.585938 C 663.363281 738.597656 887.597656 893.105469 887.765625 893.105469 Z M 887.765625 893.105469 "/>
</g>
<path style=" stroke:none;fill-rule:nonzero;fill:rgb(95.689392%,26.269531%,21.179199%);fill-opacity:1;" d="M 895.542969 632.816406 C 888.996094 718.667969 971.558594 764.429688 973.949219 827.148438 C 975.855469 878.195312 924.597656 920.746094 924.597656 920.746094 C 924.597656 920.746094 1017.632812 902.457031 1046.65625 824.585938 C 1078.882812 738.121094 984.109375 678.914062 993.863281 609.679688 C 1002.96875 543.550781 1199.542969 420.535156 1199.542969 420.535156 C 1199.542969 420.535156 910.308594 439.710938 895.542969 632.816406 Z M 895.542969 632.816406 "/>
<path style=" stroke:none;fill-rule:nonzero;fill:rgb(8.239746%,39.608765%,75.289917%);fill-opacity:1;" d="M 1175.398438 898.464844 C 1235.214844 885.019531 1285.65625 923.136719 1285.65625 967.050781 C 1285.65625 1066.042969 1148.523438 1159.609375 1148.523438 1159.609375 C 1148.523438 1159.609375 1360.820312 1134.289062 1360.820312 971.761719 C 1360.820312 864.273438 1256.566406 837.417969 1175.398438 898.464844 Z M 1175.398438 898.464844 "/>
<path style=" stroke:none;fill-rule:nonzero;fill:rgb(8.239746%,39.608765%,75.289917%);fill-opacity:1;" d="M 1074.621094 978.3125 C 1074.621094 978.3125 1140.816406 931.121094 1158.449219 913.410156 C 996.011719 947.910156 625.132812 952.550781 625.132812 922.589844 C 625.132812 894.984375 744.734375 866.695312 744.734375 866.695312 C 744.734375 866.695312 479.648438 862.875 479.648438 941.117188 C 479.648438 1022.671875 826.652344 1028.507812 1074.621094 978.3125 Z M 1074.621094 978.3125 "/>
<path style=" stroke:none;fill-rule:nonzero;fill:rgb(8.239746%,39.608765%,75.289917%);fill-opacity:1;" d="M 1033.902344 1052.566406 C 880.128906 1103.714844 596.894531 1087.371094 680.792969 1018.679688 C 639.933594 1018.679688 579.367188 1051.542969 579.367188 1083.140625 C 579.367188 1146.507812 885.6875 1195.4375 1112.410156 1102.65625 Z M 1033.902344 1052.566406 "/>
<path style=" stroke:none;fill-rule:nonzero;fill:rgb(8.239746%,39.608765%,75.289917%);fill-opacity:1;" d="M 718.476562 1160.667969 C 662.683594 1160.667969 626.566406 1196.632812 626.566406 1222.839844 C 626.566406 1304.429688 959.417969 1312.652344 1091.296875 1229.835938 L 1007.472656 1174.144531 C 908.945312 1217.484375 661.453125 1223.453125 718.476562 1160.667969 Z M 718.476562 1160.667969 "/>
<path style=" stroke:none;fill-rule:nonzero;fill:rgb(8.239746%,39.608765%,75.289917%);fill-opacity:1;" d="M 1318.53125 1293.507812 C 1318.53125 1261.570312 1282.550781 1246.523438 1269.660156 1239.320312 C 1345.644531 1422.664062 508.566406 1408.4375 508.566406 1300.199219 C 508.566406 1275.59375 570.191406 1251.503906 627.144531 1262.902344 L 578.71875 1234.269531 C 465.222656 1216.457031 388.148438 1266.382812 388.148438 1306.648438 C 388.148438 1494.425781 1318.53125 1485.382812 1318.53125 1293.507812 Z M 1318.53125 1293.507812 "/>
<path style=" stroke:none;fill-rule:nonzero;fill:rgb(8.239746%,39.608765%,75.289917%);fill-opacity:1;" d="M 1411.261719 1360.800781 C 1269.867188 1500.535156 911.332031 1551.445312 550.789062 1465.113281 C 911.332031 1618.773438 1409.554688 1532.234375 1411.261719 1360.800781 Z M 1411.261719 1360.800781 "/>
</g>
</svg>
