<?xml version="1.0" encoding="utf-8"?>
<!-- Generator: Adobe Illustrator 21.1.0, SVG Export Plug-In . SVG Version: 6.00 Build 0)  -->
<svg version="1.1" id="Layer_1" xmlns="http://www.w3.org/2000/svg" xmlns:xlink="http://www.w3.org/1999/xlink" x="0px" y="0px"
	 viewBox="0 0 576 576" style="enable-background:new 0 0 576 576;" xml:space="preserve">
<style type="text/css">
	.st0{fill:#FFFFFF;}
	.st1{fill-rule:evenodd;clip-rule:evenodd;fill:#FFFFFF;}
	.st2{fill:#007BBC;}
</style>
<g>
	<g>
		<path class="st0" d="M231.4,425.1c1.4,0,2.6,0.3-1.3,0.3c0.1,0,0.1,0,0.2-0.1c0.1,0.1,0.1,0.1,0.1,0
			C230.7,425.1,231.1,425.1,231.4,425.1z"/>
	</g>
	<g>
		<path class="st1" d="M218.9,425.1C247.3,425.1,220.2,425.1,218.9,425.1C222.6,425.1,218.7,425.1,218.9,425.1z"/>
	</g>
	<g>
		<path class="st1" d="M218.9,425.1C218.4,425.1,213.3,425.1,218.9,425.1C218.9,425.1,218,425.1,218.9,425.1z"/>
	</g>
	<g>
		<path class="st1" d="M230.2,425.4c0.1,0,0.1,0,0.2-0.1c0.1,0.1,0.1,0.1,0.1,0c0.2-0.2,0.6-0.2,1-0.2
			C232.8,425.1,234.1,425.4,230.2,425.4z"/>
	</g>
</g>
<g>
	<g>
		<g>
			<path class="st2" d="M287,576C128.8,576,0,447.2,0,289C0,130.7,128.8,2,287,2c158.3,0,287,128.8,287,287
				C574,447.2,445.3,576,287,576z"/>
		</g>
		<g>
			<g>
				<path class="st0" d="M449.3,310.8V418c0,2.6-2.1,4.8-4.8,4.8h-55.3c-2.6,0-4.8-2.1-4.8-4.8v-99.7c0-26.2-9.4-44.1-32.9-44.1
					c-17.9,0-28.6,12.1-33.3,23.7c-1.7,4.2-2.1,10-2.1,15.8V418c0,2.6-2.1,4.8-4.8,4.8h-55.3c-2.7,0-4.8-2.1-4.8-4.8
					c0.1-26.5,0.7-155.3,0.1-185.6c-0.1-2.7,2.1-4.9,4.8-4.9h55.2c2.6,0,4.8,2.1,4.8,4.8v22.9c-0.1,0.2-0.3,0.4-0.4,0.6h0.4v-0.6
					c8.6-13.3,24-32.3,58.5-32.3C417.3,223,449.3,250.9,449.3,310.8L449.3,310.8z M155.1,422.8h55.3c2.6,0,4.8-2.1,4.8-4.8V232.4
					c0-2.6-2.1-4.8-4.8-4.8h-55.3c-2.6,0-4.8,2.1-4.8,4.8V418C150.3,420.7,152.5,422.8,155.1,422.8z"/>
			</g>
		</g>
	</g>
	<g>
		<circle class="st0" cx="180.8" cy="168" r="34.7"/>
	</g>
</g>
</svg>
