<?xml version="1.0" encoding="UTF-8"?>
<svg xmlns="http://www.w3.org/2000/svg" xmlns:xlink="http://www.w3.org/1999/xlink" width="1800pt" height="1799.999925pt" viewBox="0 0 1800 1799.999925" version="1.2">
<defs>
<clipPath id="clip1">
  <path d="M 180 600.300781 L 1620 600.300781 L 1620 1199.410156 L 180 1199.410156 Z M 180 600.300781 "/>
</clipPath>
</defs>
<g id="surface1">
<g clip-path="url(#clip1)" clip-rule="nonzero">
<path style=" stroke:none;fill-rule:nonzero;fill:rgb(83.529663%,0%,0%);fill-opacity:1;" d="M 180.730469 600.300781 L 1619.269531 600.300781 L 1619.269531 1109.542969 L 900 1109.542969 L 900 1199.410156 L 570.335938 1199.410156 L 570.335938 1109.542969 L 180.730469 1109.542969 Z M 180.730469 600.300781 "/>
</g>
<path style=" stroke:none;fill-rule:nonzero;fill:rgb(100%,100%,100%);fill-opacity:1;" d="M 270.640625 1019.675781 L 420.488281 1019.675781 L 420.488281 780.035156 L 510.394531 780.035156 L 510.394531 1019.675781 L 570.335938 1019.675781 L 570.335938 690.167969 L 270.640625 690.167969 Z M 660.242188 690.167969 L 660.242188 1109.542969 L 810.089844 1109.542969 L 810.089844 1019.675781 L 959.9375 1019.675781 L 959.9375 690.167969 Z M 900 929.8125 L 810.089844 929.8125 L 810.089844 780.035156 L 900 780.035156 Z M 1049.847656 690.167969 L 1049.847656 1019.675781 L 1199.695312 1019.675781 L 1199.695312 780.035156 L 1289.605469 780.035156 L 1289.605469 1019.675781 L 1379.511719 1019.675781 L 1379.511719 780.035156 L 1469.421875 780.035156 L 1469.421875 1019.675781 L 1529.359375 1019.675781 L 1529.359375 690.167969 Z M 1049.847656 690.167969 "/>
</g>
</svg>
